<?xml version="1.0" encoding="utf-8"?>
<!-- Generator: Adobe Illustrator 19.2.0, SVG Export Plug-In . SVG Version: 6.00 Build 0)  -->
<svg version="1.1" id="Layer_1" xmlns="http://www.w3.org/2000/svg" xmlns:xlink="http://www.w3.org/1999/xlink" x="0px" y="0px"
	 viewBox="0 0 173 42.8" style="enable-background:new 0 0 173 42.8;" xml:space="preserve">
<style type="text/css">
	.st0{font-family:'Helvetica-Bold';}
	.st1{font-size:24.6484px;}
	.st2{letter-spacing:-1;}
	.st3{fill:#757576;}
</style>
<g>
	<path d="M26.3,8.5H26l-0.2,0c0,0-0.1,0-0.1,0c-3.5,0.1-6.7,1.5-9.1,3.9c-2.4,2.5-3.7,5.7-3.7,9.2c0,3.1-1.2,6.1-3.4,8.3
		c-2.2,2.2-5.1,3.5-8.2,3.6c0,0-0.1,0-0.1,0l-0.2,0v0H0.6c-0.3,0-0.6,0.3-0.6,0.6c0,0.3,0.3,0.6,0.6,0.6h0.3l0.2,0c0,0,0.1,0,0.1,0
		c3.5-0.1,6.7-1.5,9.1-3.9c2.4-2.5,3.7-5.7,3.7-9.2c0-3.1,1.2-6.1,3.4-8.3c2.2-2.2,5.1-3.5,8.2-3.6c0,0,0.1,0,0.1,0l0.2,0v0h0.3
		c0.3,0,0.6-0.3,0.6-0.6S26.7,8.5,26.3,8.5"/>
	<path d="M26.3,10.9H26v0l-0.1,0c-0.1,0-0.2,0-0.2,0c-2.8,0.1-5.4,1.2-7.3,3.2c-1.9,2-3,4.6-3,7.4l0,0.1c0,3.8-1.4,7.3-4.1,10
		C8.6,34.4,5,35.9,1.2,35.9c0,0,0,0-0.1,0l-0.1,0l-0.1,0v0H0.6c-0.3,0-0.6,0.3-0.6,0.6s0.3,0.6,0.6,0.6h0.3l0.1,0l0,0c0,0,0,0,0,0
		c0,0,0,0,0,0c4.2-0.1,8-1.7,10.9-4.7c2.9-2.9,4.4-6.8,4.4-10.9l0-0.1c0-2.4,0.9-4.7,2.6-6.5c1.7-1.8,4-2.8,6.4-2.8
		c0.1,0,0.1,0,0.2,0l0.1,0v0h0.3c0.3,0,0.6-0.3,0.6-0.6C26.9,11.2,26.7,10.9,26.3,10.9"/>
	<path d="M26.3,13.4H26v0.1l0-0.1l-0.1,0c-0.1,0-0.2,0-0.3,0c-2.2,0.1-4.2,1-5.6,2.6c-1.4,1.5-2.1,3.5-2.1,5.5l0,0.1
		c0,4.4-1.7,8.6-4.8,11.8c-3.1,3.2-7.3,5-11.8,5c0,0,0,0,0,0l0,0l-0.1,0v0H0.6C0.3,38.4,0,38.7,0,39s0.3,0.6,0.6,0.6h0.3l0.1,0l0,0
		c0,0,0,0,0.1,0c4.8,0,9.3-1.9,12.7-5.4c3.4-3.4,5.2-7.9,5.2-12.7c0,0,0,0,0,0c0,0,0,0,0,0c0-1.7,0.6-3.4,1.8-4.6
		c1.2-1.3,2.9-2.1,4.7-2.2c0.1,0,0.1,0,0.2,0l0.2,0v0h0.3c0.3,0,0.6-0.3,0.6-0.6S26.7,13.4,26.3,13.4"/>
	<path d="M26.3,15.9H26l-0.1,0c-0.1,0-0.2,0-0.4,0c-1.5,0.1-2.9,0.8-3.8,1.9c-0.9,1-1.4,2.3-1.4,3.7l0,0c0,5.1-2,9.9-5.6,13.6
		c-3.6,3.6-8.4,5.7-13.6,5.7l0,0l-0.1,0v0H0.6c-0.3,0-0.6,0.3-0.6,0.6c0,0.3,0.3,0.6,0.6,0.6h0.3v0l0.2,0c5.5,0,10.6-2.2,14.5-6.1
		c3.9-3.9,6-9,6-14.5l0-0.1c0-1.1,0.4-2.1,1.1-2.9c0.8-0.9,1.8-1.4,3-1.5c0.1,0,0.2,0,0.3,0l0.1,0v0h0.3c0.3,0,0.6-0.3,0.6-0.6
		S26.7,15.9,26.3,15.9"/>
	<path d="M0.6,32.2h0.3l0.1,0c0.1,0,0.2,0,0.2,0C4.1,32.1,6.7,31,8.6,29c1.9-2,3-4.6,3-7.4c0,0,0,0,0,0l0,0c0-3.8,1.4-7.3,4.1-10
		c2.7-2.7,6.2-4.3,10.1-4.3c0,0,0,0,0.1,0l0,0l0.1,0v0h0.3c0.3,0,0.6-0.3,0.6-0.6c0-0.3-0.3-0.6-0.6-0.6H26l-0.1,0l-0.1,0
		c0,0-0.1,0-0.1,0c-4.2,0.1-8,1.7-10.9,4.7c-2.9,2.9-4.4,6.8-4.4,10.9l0,0.1c0,2.4-0.9,4.7-2.6,6.5c-1.7,1.8-4,2.8-6.4,2.8
		c-0.1,0-0.1,0-0.2,0l-0.1,0v0H0.6C0.3,31,0,31.2,0,31.6S0.3,32.2,0.6,32.2"/>
	<path d="M0.6,29.7h0.3l0.2,0c0.1,0,0.2,0,0.3,0c2.2-0.1,4.2-1,5.6-2.6c1.4-1.5,2.1-3.5,2.1-5.5l0-0.1c0-4.4,1.7-8.6,4.8-11.8
		c3.1-3.2,7.3-5,11.8-5c0,0,0,0,0,0l0,0l0.1,0v0h0.3c0.3,0,0.6-0.3,0.6-0.6c0-0.3-0.3-0.6-0.6-0.6h-0.3v0l-0.1,0l0,0c0,0,0,0,0,0
		c-4.8,0-9.3,1.9-12.7,5.4c-3.4,3.4-5.2,7.9-5.2,12.7l0,0c0,0,0,0,0,0c0,1.7-0.6,3.4-1.8,4.6c-1.2,1.3-2.9,2.1-4.7,2.2
		c-0.1,0-0.1,0-0.2,0l-0.2,0v0H0.6c-0.3,0-0.6,0.3-0.6,0.6S0.3,29.7,0.6,29.7"/>
	<path d="M0.6,27.2h0.3l0.1,0c0.1,0,0.2,0,0.4,0c1.5-0.1,2.9-0.8,3.8-1.9c0.9-1,1.4-2.3,1.4-3.7l0-0.1c0-5.1,2-9.9,5.6-13.6
		c3.6-3.6,8.4-5.7,13.6-5.7l0.1,0h0l0.1,0v0h0.2c0.3,0,0.6-0.3,0.6-0.6c0-0.3-0.3-0.6-0.6-0.6h-0.3v0l0,0l0,0
		c-5.5,0-10.6,2.2-14.5,6.1c-3.9,3.9-6,9-6,14.5l0,0.1c0,1.1-0.4,2.1-1,2.9c-0.8,0.9-1.8,1.4-3,1.5c-0.1,0-0.2,0-0.3,0l-0.1,0v0H0.6
		C0.3,26,0,26.3,0,26.6S0.3,27.2,0.6,27.2"/>
	<text transform="matrix(1 0 0 1 31.4929 18.6292)"><tspan x="0" y="0" class="st0 st1 st2">S</tspan><tspan x="15" y="0" class="st0 st1 st2">l</tspan><tspan x="20.7" y="0" class="st0 st1 st2">o</tspan><tspan x="34.4" y="0" class="st0 st1 st2">w</tspan><tspan x="51.8" y="0" class="st0 st1"> </tspan><tspan x="58.6" y="0" class="st0 st1 st2">F</tspan><tspan x="72" y="0" class="st0 st1 st2">a</tspan><tspan x="84.6" y="0" class="st0 st1">c</tspan><tspan x="97.5" y="0" class="st0 st1 st2">t</tspan><tspan x="104.6" y="0" class="st0 st1 st2">o</tspan><tspan x="118.4" y="0" class="st0 st1">r</tspan><tspan x="127.9" y="0" class="st0 st1">y</tspan><tspan x="0" y="23.5" class="st3 st0 st1">S</tspan><tspan x="15.5" y="23.5" class="st3 st0 st1">t</tspan><tspan x="23.2" y="23.5" class="st3 st0 st1 st2">u</tspan><tspan x="36.7" y="23.5" class="st3 st0 st1">d</tspan><tspan x="50.8" y="23.5" class="st3 st0 st1">io</tspan></text>
</g>
</svg>
