<svg id="Layer_1" data-name="Layer 1" xmlns="http://www.w3.org/2000/svg" viewBox="0 0 152.87 45.03"><path d="M74.14,8h-.63A13.08,13.08,0,0,0,60.68,21.14,11.83,11.83,0,0,1,49.08,33h-.61a.63.63,0,1,0,0,1.25h.63A13.08,13.08,0,0,0,61.93,21.14,11.81,11.81,0,0,1,73.53,9.28h.61a.63.63,0,0,0,.63-.63A.63.63,0,0,0,74.14,8" style="fill:#231f20"/><path d="M74.14,10.51h-.68a10.59,10.59,0,0,0-10.3,10.57v.06A14.29,14.29,0,0,1,49,35.48h-.57a.63.63,0,0,0,0,1.26h.58A15.55,15.55,0,0,0,64.42,21.13v-.05a9.34,9.34,0,0,1,9.07-9.32h.65a.63.63,0,1,0,0-1.25" style="fill:#231f20"/><path d="M74.14,13h-.32v0H73.4a8.09,8.09,0,0,0-7.75,8.14v.05A16.78,16.78,0,0,1,49,38h-.53a.63.63,0,1,0,0,1.26H49A18,18,0,0,0,66.9,21.13v-.05a6.86,6.86,0,0,1,6.56-6.83h.68a.63.63,0,0,0,0-1.26" style="fill:#231f20"/><path d="M74.14,15.47h-.45l-.35,0a5.54,5.54,0,0,0-3.84,1.92,5.62,5.62,0,0,0-1.36,3.73v.05A19.31,19.31,0,0,1,49,40.46h-.48a.63.63,0,1,0,0,1.25H49A20.55,20.55,0,0,0,69.4,21.19v-.06a4.33,4.33,0,0,1,4-4.39h.71a.63.63,0,1,0,0-1.26" style="fill:#231f20"/><path d="M48.47,31.77h.68a10.59,10.59,0,0,0,10.3-10.57v-.05A14.29,14.29,0,0,1,73.57,6.79h.57a.63.63,0,0,0,0-1.26h-.58A15.55,15.55,0,0,0,58.19,21.14v.05a9.34,9.34,0,0,1-9.07,9.32h-.65a.63.63,0,1,0,0,1.26" style="fill:#231f20"/><path d="M48.47,29.28h.74A8.09,8.09,0,0,0,57,21.14v-.06A16.78,16.78,0,0,1,73.61,4.3h.47a.63.63,0,0,0,.63-.63A.63.63,0,0,0,74.08,3H73.6a18,18,0,0,0-17.89,18.1v.05A6.86,6.86,0,0,1,49.16,28h-.69a.63.63,0,0,0-.63.63.63.63,0,0,0,.63.63" style="fill:#231f20"/><path d="M48.47,26.8h.8a5.61,5.61,0,0,0,5.2-5.65v-.05A19.31,19.31,0,0,1,73.66,1.81H74A.63.63,0,1,0,74,.56h-.39A20.55,20.55,0,0,0,53.21,21.09v.05a4.31,4.31,0,0,1-4,4.39h-.71a.63.63,0,0,0-.63.63.63.63,0,0,0,.63.63" style="fill:#231f20"/><path d="M72.08,21.25H84.73v3.12h-9v4.08h7.86v3.08H75.76V39H72.08Z" style="fill:#231f20"/><path d="M90.36,31a5.37,5.37,0,0,0,1.37-.3,1,1,0,0,0,.74-1,1.15,1.15,0,0,0-.57-1.11,3.47,3.47,0,0,0-1.66-.31,2.2,2.2,0,0,0-1.75.6A2.63,2.63,0,0,0,88,30.1H84.69a5.1,5.1,0,0,1,1-2.83c.91-1.16,2.48-1.74,4.69-1.74a8.36,8.36,0,0,1,3.85.86,3.29,3.29,0,0,1,1.68,3.23v6c0,.42,0,.92,0,1.52a1.87,1.87,0,0,0,.2.91,1.25,1.25,0,0,0,.51.4V39H92.88a4.3,4.3,0,0,1-.21-.75,7.57,7.57,0,0,1-.1-.8,7.31,7.31,0,0,1-1.65,1.32,5,5,0,0,1-2.52.63,4.34,4.34,0,0,1-3-1,3.62,3.62,0,0,1-1.17-2.89A3.74,3.74,0,0,1,86.15,32a8.3,8.3,0,0,1,3-.85Zm2.1,1.6a3.39,3.39,0,0,1-.66.33,5.12,5.12,0,0,1-.93.24l-.78.14a5.36,5.36,0,0,0-1.58.47,1.58,1.58,0,0,0-.81,1.46,1.52,1.52,0,0,0,.5,1.27,1.88,1.88,0,0,0,1.2.39,3.65,3.65,0,0,0,2.08-.65,2.73,2.73,0,0,0,1-2.37Z" style="fill:#231f20"/><path d="M105.7,30.56a3.12,3.12,0,0,0-.5-1.33,2.06,2.06,0,0,0-1.8-.79A2.37,2.37,0,0,0,101,30.16a7.33,7.33,0,0,0-.33,2.43A6.65,6.65,0,0,0,101,34.9a2.29,2.29,0,0,0,2.32,1.64,2,2,0,0,0,1.72-.65,3.25,3.25,0,0,0,.61-1.68h3.51a5.7,5.7,0,0,1-1.14,3,5.5,5.5,0,0,1-4.78,2.25,5.62,5.62,0,0,1-4.67-1.88,7.61,7.61,0,0,1-1.49-4.87,7.73,7.73,0,0,1,1.65-5.26,5.76,5.76,0,0,1,4.56-1.88,6.86,6.86,0,0,1,4,1.11,5.15,5.15,0,0,1,1.86,3.92Z" style="fill:#231f20"/><path d="M109.4,28.41V26h1.83V22.31h3.4V26h2.13v2.44h-2.13v6.94a1.57,1.57,0,0,0,.2,1,2.3,2.3,0,0,0,1.25.19h.33l.35,0V39.1l-1.63.06c-1.62.05-2.73-.23-3.32-.85a2.49,2.49,0,0,1-.58-1.82V28.41Z" style="fill:#231f20"/><path d="M128.8,37.37a7.23,7.23,0,0,1-10.09,0A7.61,7.61,0,0,1,117,32.43a7.65,7.65,0,0,1,1.67-4.92,7.16,7.16,0,0,1,10.09,0,7.64,7.64,0,0,1,1.66,4.92A7.6,7.6,0,0,1,128.8,37.37Zm-2.75-1.9a5,5,0,0,0,.81-3,4.93,4.93,0,0,0-.81-3,2.71,2.71,0,0,0-2.31-1.06,2.75,2.75,0,0,0-2.32,1.06,4.93,4.93,0,0,0-.81,3,5,5,0,0,0,.81,3,2.73,2.73,0,0,0,2.32,1.07A2.7,2.7,0,0,0,126.05,35.47Z" style="fill:#231f20"/><path d="M139,25.54l.3,0v3.52c-.22,0-.41,0-.58,0h-.41a2.83,2.83,0,0,0-2.78,1.34,5.21,5.21,0,0,0-.4,2.34V39h-3.46V25.85h3.28v2.29a7.28,7.28,0,0,1,1.38-1.8,3.78,3.78,0,0,1,2.51-.81Z" style="fill:#231f20"/><path d="M141.7,41.49l.44,0a6.07,6.07,0,0,0,1,0,1.69,1.69,0,0,0,.77-.28,1.8,1.8,0,0,0,.56-.85,2,2,0,0,0,.22-.8l-4.82-13.7h3.82l2.86,9.68,2.71-9.68h3.65l-4.5,12.91a18.45,18.45,0,0,1-2.06,4.63c-.51.6-1.52.9-3,.9h-.74l-.83,0Z" style="fill:#231f20"/><path d="M3.93,17.1a3.58,3.58,0,0,0,.68,1.82A3.94,3.94,0,0,0,7.77,20a6.81,6.81,0,0,0,2.17-.29,2.07,2.07,0,0,0,1.59-2.06,1.51,1.51,0,0,0-.78-1.36,8.43,8.43,0,0,0-2.46-.83l-1.92-.42a12.11,12.11,0,0,1-3.9-1.36A4.35,4.35,0,0,1,.68,9.85a5.11,5.11,0,0,1,1.76-4A7.47,7.47,0,0,1,7.59,4.31,7.92,7.92,0,0,1,12.44,5.8a5.26,5.26,0,0,1,2.1,4.32H11A2.56,2.56,0,0,0,9.54,7.84,5,5,0,0,0,7.33,7.4,4.14,4.14,0,0,0,5,8a1.81,1.81,0,0,0-.88,1.61A1.52,1.52,0,0,0,5,11a11,11,0,0,0,2.36.74l3.11.73a7.83,7.83,0,0,1,3.07,1.29,4.33,4.33,0,0,1,1.59,3.62,5.09,5.09,0,0,1-1.88,4A7.92,7.92,0,0,1,7.91,23,8.72,8.72,0,0,1,2.4,21.46a5.25,5.25,0,0,1-2-4.36Z" style="fill:#231f20"/><path d="M19.53,22.58H16.1V4.83h3.43Z" style="fill:#231f20"/><path d="M32.64,21a6.1,6.1,0,0,1-5,2.05A6.11,6.11,0,0,1,22.55,21,7.6,7.6,0,0,1,20.89,16a7.64,7.64,0,0,1,1.66-4.92A6.07,6.07,0,0,1,27.6,9a6.06,6.06,0,0,1,5,2.08A7.64,7.64,0,0,1,34.3,16,7.6,7.6,0,0,1,32.64,21Zm-2.74-1.9a5,5,0,0,0,.8-3,5,5,0,0,0-.8-3,2.73,2.73,0,0,0-2.32-1.06A2.73,2.73,0,0,0,25.27,13a4.87,4.87,0,0,0-.82,3,4.89,4.89,0,0,0,.82,3,2.71,2.71,0,0,0,2.31,1.07A2.71,2.71,0,0,0,29.9,19.08Z" style="fill:#231f20"/><path d="M41.55,9.46H45l2,9.45,2-9.45h3.58L48.84,22.58H45.31L43.26,13l-2.09,9.56H37.61L33.92,9.46h3.69l2,9.42Z" style="fill:#231f20"/></svg>