<?xml version="1.0" encoding="utf-8"?>
<!-- Generator: Adobe Illustrator 19.2.0, SVG Export Plug-In . SVG Version: 6.00 Build 0)  -->
<svg version="1.1" id="Layer_1" xmlns="http://www.w3.org/2000/svg" xmlns:xlink="http://www.w3.org/1999/xlink" x="0px" y="0px"
	 viewBox="0 0 666.7 169" style="enable-background:new 0 0 666.7 169;" xml:space="preserve">
<style type="text/css">
	.st0{font-family:'Helvetica-Bold';}
	.st1{font-size:94.51px;}
	.st2{letter-spacing:-5;}
	.st3{letter-spacing:-4;}
	.st4{letter-spacing:-6;}
	.st5{letter-spacing:-3;}
	.st6{fill:#757576;}
</style>
<g>
	<path d="M101.9,34.1h-1.2l-0.7,0c-0.2,0-0.4,0-0.5,0c-13.2,0.2-25.6,5.6-34.9,15.1c-9.3,9.5-14.3,22-14.3,35.2
		c0,11.9-4.5,23.3-12.9,31.8c-8.4,8.6-19.6,13.4-31.6,13.6c-0.1,0-0.3,0-0.4,0l-0.7,0v0H3.4c-1.3,0-2.4,1.1-2.4,2.4
		c0,1.3,1.1,2.4,2.4,2.4h1.2l0.7,0c0.2,0,0.3,0,0.5,0c13.2-0.2,25.6-5.6,34.9-15.1c9.3-9.5,14.3-22,14.3-35.2
		c0-11.9,4.5-23.3,12.9-31.8c8.4-8.6,19.6-13.4,31.6-13.6c0.1,0,0.3,0,0.4,0l0.7,0v0h1.2c1.3,0,2.4-1.1,2.4-2.4
		C104.3,35.2,103.2,34.1,101.9,34.1"/>
	<path d="M101.9,43.7h-1.2v0l-0.5,0c-0.3,0-0.6,0-0.9,0C88.6,44,78.7,48.3,71.2,56c-7.4,7.6-11.5,17.7-11.5,28.3l0,0.2
		c0.1,14.5-5.5,28.1-15.6,38.5c-10.2,10.5-23.9,16.3-38.6,16.5c-0.1,0-0.2,0-0.3,0l-0.2,0l-0.5,0v0H3.4c-1.3,0-2.4,1.1-2.4,2.4
		c0,1.3,1.1,2.4,2.4,2.4h1.2l0.5,0l0.2,0c0.1,0,0.1,0,0.2,0c0.1,0,0.1,0,0.2,0c15.9-0.2,30.8-6.6,42-18c11-11.2,17-26.1,16.9-41.9
		l0-0.2c0-9.3,3.6-18.2,10.1-24.9c6.5-6.7,15.3-10.6,24.7-10.8c0.3,0,0.5,0,0.8,0l0.5,0v0h1.2c1.3,0,2.4-1.1,2.4-2.4
		C104.3,44.7,103.2,43.7,101.9,43.7"/>
	<path d="M101.9,53.2h-1.2v0.5l0-0.5l-0.5,0c-0.4,0-0.7,0-1.1,0c-8.3,0.3-15.9,3.9-21.6,10c-5.3,5.8-8.2,13.3-8.2,21.2l0,0.2
		c0,17-6.6,33-18.5,45.1C38.7,142,22.6,148.8,5.4,149c-0.1,0-0.1,0-0.2,0l-0.2,0l-0.5,0v0H3.4C2.1,149,1,150,1,151.4
		s1.1,2.4,2.4,2.4h1.2l0.5,0l0.1,0c0.1,0,0.1,0,0.2,0c18.5-0.1,35.8-7.5,48.8-20.6c12.9-13.1,19.9-30.4,19.9-48.7c0,0,0-0.1,0-0.1
		c0,0,0-0.1,0-0.1c0-6.6,2.5-12.9,6.9-17.7c4.7-5.2,11.2-8.2,18.2-8.5c0.3,0,0.6,0,0.8,0l0.6,0v0h1.2c1.3,0,2.4-1.1,2.4-2.4
		C104.3,54.3,103.2,53.2,101.9,53.2"/>
	<path d="M101.9,62.7h-1.2l-0.5,0c-0.5,0-1,0-1.4,0.1c-5.7,0.4-11,3-14.7,7.4c-3.4,3.9-5.3,9-5.2,14.3l0,0.2
		c0,19.6-7.7,38.1-21.5,52.1c-13.9,14-32.4,21.7-52,21.8l-0.1,0l-0.5,0v0H3.4c-1.3,0-2.4,1.1-2.4,2.4c0,1.3,1.1,2.4,2.4,2.4h1.2v0
		l0.7,0c20.9-0.1,40.6-8.3,55.4-23.2c14.8-14.9,22.9-34.6,22.9-55.5l0-0.2c0-4.1,1.4-8.1,4-11.1c2.9-3.4,7-5.4,11.4-5.7
		c0.3,0,0.6,0,1,0l0.5,0v0h1.2c1.3,0,2.4-1.1,2.4-2.4C104.3,63.8,103.2,62.7,101.9,62.7"/>
	<path d="M3.4,125.2h1.2l0.5,0c0.3,0,0.6,0,0.9,0c10.6-0.3,20.6-4.7,28-12.3c7.4-7.6,11.5-17.7,11.5-28.3c0,0,0-0.1,0-0.1l0-0.1
		C45.5,69.9,51,56.3,61.1,45.9C71.3,35.4,85,29.6,99.7,29.4c0.1,0,0.2,0,0.3,0l0.2,0l0.5,0v0h1.2c1.3,0,2.4-1.1,2.4-2.4
		c0-1.3-1.1-2.4-2.4-2.4h-1.2l-0.5,0l-0.2,0c-0.1,0-0.2,0-0.3,0c-15.9,0.2-30.8,6.6-42,18c-11,11.2-17,26.1-16.9,41.9l0,0.2
		c0,9.3-3.6,18.2-10.1,24.9c-6.5,6.7-15.3,10.6-24.7,10.8c-0.3,0-0.5,0-0.8,0l-0.5,0v0H3.4c-1.3,0-2.4,1.1-2.4,2.4
		C1,124.1,2.1,125.2,3.4,125.2"/>
	<path d="M3.4,115.6h1.2l0.6,0c0.3,0,0.7,0,1,0c8.3-0.3,15.9-3.9,21.6-10c5.3-5.8,8.2-13.3,8.2-21.2l0-0.2c0-17,6.6-33,18.5-45.1
		C66.5,26.8,82.6,20,99.8,19.9c0.1,0,0.1,0,0.2,0l0.2,0l0.2,0v0h1.2c1.3,0,2.4-1.1,2.4-2.4c0-1.3-1.1-2.4-2.4-2.4h-1.2v0l-0.2,0
		l-0.2,0c-0.1,0-0.1,0-0.2,0C81.3,15.2,64,22.5,51,35.7C38.2,48.7,31.1,66,31.2,84.4l0,0.1c0,0,0,0.1,0,0.1c0,6.6-2.5,12.9-6.9,17.7
		c-4.7,5.2-11.2,8.2-18.2,8.5c-0.3,0-0.6,0-0.8,0l-0.6,0v0H3.4c-1.3,0-2.4,1.1-2.4,2.4S2.1,115.6,3.4,115.6"/>
	<path d="M3.4,106.1h1.2l0.5,0c0.5,0,0.9,0,1.4-0.1c5.7-0.4,11-3,14.7-7.4c3.4-3.9,5.3-9,5.2-14.3l0-0.2c0-19.6,7.7-38.1,21.5-52.1
		c13.9-14,32.4-21.7,52-21.8l0.2,0h0l0.4,0v0h0.8c1.3,0,2.4-1.1,2.4-2.4c0-1.3-1.1-2.4-2.4-2.4h-1.2v0l-0.1,0l-0.2,0
		C79,5.6,59.4,13.8,44.6,28.7C29.8,43.6,21.6,63.3,21.6,84.2l0,0.2c0,4.1-1.4,8.1-4,11.1c-2.9,3.4-7,5.4-11.4,5.7c-0.3,0-0.6,0-1,0
		l-0.5,0v0H3.4c-1.3,0-2.4,1.1-2.4,2.4S2.1,106.1,3.4,106.1"/>
	<text transform="matrix(1 0 0 1 121.7546 73.0996)"><tspan x="0" y="0" class="st0 st1 st2">S</tspan><tspan x="57.7" y="0" class="st0 st1 st3">l</tspan><tspan x="79.4" y="0" class="st0 st1 st2">o</tspan><tspan x="131.7" y="0" class="st0 st1 st4">w</tspan><tspan x="198.7" y="0" class="st0 st1"> </tspan><tspan x="224.7" y="0" class="st0 st1 st4">F</tspan><tspan x="275.9" y="0" class="st0 st1 st5">a</tspan><tspan x="324.5" y="0" class="st0 st1 st5">c</tspan><tspan x="373.9" y="0" class="st0 st1 st3">t</tspan><tspan x="401.1" y="0" class="st0 st1 st3">o</tspan><tspan x="454.1" y="0" class="st0 st1">r</tspan><tspan x="490.6" y="0" class="st0 st1">y</tspan><tspan x="0" y="90.2" class="st6 st0 st1">Labs</tspan></text>
</g>
</svg>
